<?xml version="1.0" encoding="UTF-8" standalone="no"?>
<!DOCTYPE svg PUBLIC "-//W3C//DTD SVG 1.1//EN" "http://www.w3.org/Graphics/SVG/1.1/DTD/svg11.dtd">
<svg width="124" height="138" viewBox="0 0 124 138" fill="none" xmlns="http://www.w3.org/2000/svg">
    <path d="M56.2089 65.1485C36.7818 70.3522 19.4362 76.5966 1.04986 86.6571C0.934221 89.3167 0.633564 94.7054 0.356034 94.983C0.00912145 95.3299 50.3114 75.9028 57.5966 74.8621C58.6373 81.8003 65.9225 121.695 75.2891 138C76.3299 136.959 79.4521 134.184 80.4928 133.837C81.1866 129.674 69.7385 82.4941 68.3509 71.7398C83.9619 66.8831 117.266 58.0021 122.816 55.7819C123.047 54.2786 123.441 50.9945 123.163 49.8844C114.49 49.1906 71.1262 59.5979 66.6163 61.6794C63.1472 40.8647 64.8818 4.78576 62.4534 0.969727C60.8344 1.43228 57.2497 2.42676 55.862 2.70429C53.4336 9.29563 54.1275 49.1906 56.2089 65.1485Z" fill="#F1F1F1"/>
    <path fill-rule="evenodd" clip-rule="evenodd" d="M91.2472 44.6806C99.2941 44.6806 106.511 37.3955 106.511 25.6005C106.511 15.2544 99.2941 6.86719 91.2472 6.86719C83.2002 6.86719 75.983 15.2544 75.983 25.6005C75.983 35.9466 81.5336 44.6806 91.2472 44.6806ZM91.2472 34.6202C94.6959 34.6202 97.4916 30.5819 97.4916 25.6005C97.4916 20.619 94.6959 16.5808 91.2472 16.5808C87.7985 16.5808 85.0028 20.619 85.0028 25.6005C85.0028 30.5819 87.7985 34.6202 91.2472 34.6202Z" fill="#46A3FF"/>
    <path fill-rule="evenodd" clip-rule="evenodd" d="M37.8226 132.796C45.8696 132.796 53.0868 125.511 53.0868 113.716C53.0868 103.37 45.8696 94.9829 37.8226 94.9829C29.7757 94.9829 22.5585 103.37 22.5585 113.716C22.5585 124.062 28.1091 132.796 37.8226 132.796ZM37.8226 122.736C41.2713 122.736 44.067 118.698 44.067 113.716C44.067 108.735 41.2713 104.696 37.8226 104.696C34.3739 104.696 31.5782 108.735 31.5782 113.716C31.5782 118.698 34.3739 122.736 37.8226 122.736Z" fill="#46A3FF"/>
    <path d="M28.8029 32.1919C27.9703 32.747 22.9054 37.7425 20.477 41.2116C18.0486 38.0894 12.8449 33.2326 12.1511 32.8857C11.8042 32.8857 9.37582 35.3141 8.33508 36.3548C8.89014 38.5751 13.6544 44.912 15.9672 47.803C14.5795 49.5375 10.4166 57.8634 9.37582 60.6387C10.4166 61.6795 14.9264 64.4548 16.661 65.4955C18.3955 64.1078 22.5585 56.4758 23.5992 55.435C24.2931 56.1289 31.9251 60.2918 33.6597 60.6387L37.8226 56.4758C36.7125 55.0881 31.2313 49.8844 28.456 47.803C29.8437 46.0684 32.619 40.5178 34.0066 36.7018C34.0066 36.4242 30.5375 33.2326 28.8029 32.1919Z" fill="#FF827E"/>
    <path d="M108.94 78.3311C108.107 78.8861 103.042 83.8817 100.614 87.3508C98.1853 84.2286 92.9817 79.3718 92.2878 79.0249C91.9409 79.0249 89.5125 81.4533 88.4718 82.494C89.0269 84.7142 93.7911 91.0512 96.1039 93.9421C94.7162 95.6767 90.5533 104.003 89.5125 106.778C90.5533 107.819 95.0631 110.594 96.7977 111.635C98.5323 110.247 102.695 102.615 103.736 101.574C104.43 102.268 112.062 106.431 113.796 106.778L117.959 102.615C116.849 101.227 111.368 96.0236 108.593 93.9421C109.98 92.2076 112.756 86.657 114.143 82.8409C114.143 82.5634 110.674 79.3718 108.94 78.3311Z" fill="#FF827E"/>
</svg>
